<svg width="512" height="512" viewBox="0 0 512 512" fill="none" xmlns="http://www.w3.org/2000/svg">
  <rect width="512" height="512" rx="64" fill="#3b82f6"/>
  <g transform="translate(96, 96)">
    <!-- Logo J principal -->
    <path d="M160 64C160 28.6538 188.654 0 224 0C259.346 0 288 28.6538 288 64V192C288 270.692 224.692 334 146 334C67.3076 334 4 270.692 4 192V176C4 140.654 32.6538 112 68 112C103.346 112 132 140.654 132 176V192C132 209.673 146.327 224 164 224C181.673 224 196 209.673 196 192V64Z" fill="white"/>
    
    <!-- Elementos gráficos decorativos -->
    <g transform="translate(240, 240)">
      <!-- Gráfico de barras -->
      <rect x="0" y="32" width="16" height="64" rx="8" fill="white" opacity="0.8"/>
      <rect x="24" y="16" width="16" height="80" rx="8" fill="white" opacity="0.9"/>
      <rect x="48" y="0" width="16" height="96" rx="8" fill="white"/>
      <rect x="72" y="8" width="16" height="88" rx="8" fill="white" opacity="0.9"/>
      
      <!-- Linha de tendência -->
      <path d="M8 64L32 48L56 32L80 40" stroke="white" stroke-width="3" stroke-linecap="round" opacity="0.7"/>
      
      <!-- Pontos de dados -->
      <circle cx="8" cy="64" r="4" fill="white"/>
      <circle cx="32" cy="48" r="4" fill="white"/>
      <circle cx="56" cy="32" r="4" fill="white"/>
      <circle cx="80" cy="40" r="4" fill="white"/>
    </g>
    
    <!-- Elementos de IA/tecnologia -->
    <g transform="translate(20, 280)" opacity="0.6">
      <!-- Ícone de IA -->
      <circle cx="16" cy="16" r="12" stroke="white" stroke-width="2" fill="none"/>
      <circle cx="16" cy="16" r="4" fill="white"/>
      <path d="M16 4V28M4 16H28M9.17 9.17L22.83 22.83M22.83 9.17L9.17 22.83" stroke="white" stroke-width="1.5"/>
    </g>
    
    <!-- Símbolo de dinheiro estilizado -->
    <g transform="translate(280, 40)" opacity="0.7">
      <circle cx="20" cy="20" r="16" stroke="white" stroke-width="2" fill="none"/>
      <path d="M20 8V32M16 12H22C23.1 12 24 12.9 24 14C24 15.1 23.1 16 22 16H18C16.9 16 16 16.9 16 18V22C16 23.1 16.9 24 18 24H22C23.1 24 24 24.9 24 26C24 27.1 23.1 28 22 28H16" stroke="white" stroke-width="2" stroke-linecap="round"/>
    </g>
  </g>
</svg>