<svg width="150" height="150" viewBox="0 0 150 150" fill="none" xmlns="http://www.w3.org/2000/svg">
  <rect width="150" height="150" fill="#3b82f6"/>
  <g transform="translate(25, 25)">
    <!-- Logo J -->
    <path d="M50 15C50 6.71573 56.7157 0 65 0C73.2843 0 80 6.71573 80 15V50C80 72.0914 62.0914 90 40 90C17.9086 90 0 72.0914 0 50V45C0 36.7157 6.71573 30 15 30C23.2843 30 30 36.7157 30 45V50C30 52.7614 32.2386 55 35 55C37.7614 55 40 52.7614 40 50V15Z" fill="white"/>
    
    <!-- Gráfico -->
    <rect x="60" y="60" width="8" height="30" rx="4" fill="white" opacity="0.8"/>
    <rect x="72" y="54" width="8" height="36" rx="4" fill="white" opacity="0.9"/>
    <rect x="84" y="48" width="8" height="42" rx="4" fill="white"/>
    
    <!-- Linha de tendência -->
    <path d="M64 75L76 66L88 57" stroke="white" stroke-width="2" stroke-linecap="round" opacity="0.7"/>
  </g>
</svg>