<svg width="310" height="310" viewBox="0 0 310 310" fill="none" xmlns="http://www.w3.org/2000/svg">
  <rect width="310" height="310" fill="#3b82f6"/>
  <g transform="translate(55, 55)">
    <!-- Logo J principal -->
    <path d="M100 30C100 13.4315 113.431 0 130 0C146.569 0 160 13.4315 160 30V100C160 155.228 115.228 200 60 200C4.77176 200 -40 155.228 -40 100V90C-40 73.4315 -26.5685 60 -10 60C6.43147 60 20 73.4315 20 90V100C20 111.046 28.9543 120 40 120C51.0457 120 60 111.046 60 100V30Z" fill="white"/>
    
    <!-- Elementos gráficos avançados -->
    <g transform="translate(140, 140)">
      <!-- Gráfico de barras -->
      <rect x="0" y="20" width="12" height="40" rx="6" fill="white" opacity="0.8"/>
      <rect x="18" y="10" width="12" height="50" rx="6" fill="white" opacity="0.9"/>
      <rect x="36" y="0" width="12" height="60" rx="6" fill="white"/>
      <rect x="54" y="5" width="12" height="55" rx="6" fill="white" opacity="0.9"/>
      
      <!-- Linha de tendência -->
      <path d="M6 40L24 30L42 20L60 25" stroke="white" stroke-width="2" stroke-linecap="round" opacity="0.7"/>
      
      <!-- Pontos de dados */
      <circle cx="6" cy="40" r="3" fill="white"/>
      <circle cx="24" cy="30" r="3" fill="white"/>
      <circle cx="42" cy="20" r="3" fill="white"/>
      <circle cx="60" cy="25" r="3" fill="white"/>
    </g>
    
    <!-- Elementos decorativos */
    <g transform="translate(10, 160)" opacity="0.6">
      <!-- Ícone de IA */
      <circle cx="20" cy="20" r="15" stroke="white" stroke-width="2" fill="none"/>
      <circle cx="20" cy="20" r="5" fill="white"/>
      <path d="M20 5V35M5 20H35M11.46 11.46L28.54 28.54M28.54 11.46L11.46 28.54" stroke="white" stroke-width="2"/>
    </g>
    
    <!-- Símbolo financeiro */
    <g transform="translate(160, 20)" opacity="0.7">
      <circle cx="25" cy="25" r="20" stroke="white" stroke-width="2" fill="none"/>
      <path d="M25 10V40M20 15H27C28.66 15 30 16.34 30 18C30 19.66 28.66 21 27 21H23C21.34 21 20 22.34 20 24V26C20 27.66 21.34 29 23 29H27C28.66 29 30 30.34 30 32C30 33.66 28.66 35 27 35H20" stroke="white" stroke-width="2" stroke-linecap="round"/>
    </g>
  </g>
</svg>